<?xml version="1.0" standalone="no"?>
<!DOCTYPE svg PUBLIC "-//W3C//DTD SVG 20010904//EN"
 "http://www.w3.org/TR/2001/REC-SVG-20010904/DTD/svg10.dtd">
<svg version="1.0" xmlns="http://www.w3.org/2000/svg"
 width="808.000000pt" height="808.000000pt" viewBox="0 0 808.000000 808.000000"
 preserveAspectRatio="xMidYMid meet">
<metadata>
Created by potrace 1.14, written by Peter Selinger 2001-2017
</metadata>
<g transform="translate(0.000000,808.000000) scale(0.100000,-0.100000)"
fill="#000000" stroke="none">
<path d="M3032 6882 c-13 -10 -25 -33 -28 -52 -4 -29 0 -40 22 -63 23 -26 31
-28 68 -23 40 6 43 5 156 -92 155 -133 306 -285 390 -392 14 -17 35 -43 47
-57 12 -14 27 -38 35 -52 7 -14 15 -28 18 -31 42 -41 128 -252 145 -355 3 -16
10 -55 15 -86 10 -55 13 -75 25 -209 8 -90 13 -368 6 -378 -3 -5 -23 -14 -43
-21 -81 -27 -168 -107 -212 -197 -95 -194 16 -443 227 -509 29 -9 59 -19 66
-21 9 -3 -5 -14 -35 -28 -27 -13 -69 -44 -94 -69 l-44 -46 -101 202 c-106 211
-146 289 -156 297 -3 3 -13 21 -23 40 -30 57 -50 92 -89 153 -20 31 -37 59
-37 62 0 2 -20 33 -45 69 -25 37 -45 71 -45 76 0 6 -4 10 -8 10 -4 0 -16 15
-27 33 -10 17 -21 34 -25 37 -3 3 -22 28 -40 55 -19 28 -40 56 -47 63 -7 8
-25 30 -40 50 -65 89 -234 270 -339 362 -179 158 -391 276 -563 311 -73 15
-256 19 -318 8 -26 -5 -61 -12 -78 -15 -122 -21 -323 -95 -430 -159 -27 -17
-62 -37 -77 -45 -107 -59 -368 -291 -448 -398 -14 -19 -34 -46 -46 -60 -18
-24 -88 -125 -122 -178 -18 -28 -153 -302 -156 -316 -3 -13 -7 -25 -29 -83 -7
-16 -12 -33 -13 -37 -1 -5 -2 -9 -4 -10 -1 -2 -3 -10 -5 -18 -2 -8 -9 -33 -15
-55 -62 -224 -81 -416 -65 -640 17 -240 103 -510 216 -676 82 -121 217 -237
359 -310 36 -19 67 -34 70 -35 5 -1 16 -5 95 -38 44 -19 277 -80 340 -90 22
-3 51 -8 65 -10 36 -7 172 -24 190 -24 76 -1 223 -12 231 -17 5 -4 -14 -19
-43 -34 -58 -29 -86 -50 -132 -97 -107 -107 -136 -191 -131 -371 4 -111 4
-116 25 -193 7 -25 14 -52 15 -60 2 -8 12 -33 23 -55 10 -22 25 -55 33 -73 8
-17 17 -32 21 -32 5 0 8 -5 8 -11 0 -19 95 -141 152 -195 182 -173 480 -315
690 -328 21 -2 40 -5 43 -7 6 -7 103 -2 145 7 19 4 42 8 50 9 45 5 300 112
320 135 3 3 34 23 70 45 57 34 191 133 259 190 41 35 123 109 152 138 15 15
31 27 36 27 4 0 18 -22 31 -50 32 -71 109 -163 167 -201 41 -27 59 -33 105
-33 30 0 66 3 79 7 36 10 100 62 147 119 24 30 94 153 94 166 0 21 11 14 106
-75 49 -45 118 -105 154 -133 36 -28 74 -59 84 -67 55 -45 193 -130 291 -179
61 -31 111 -55 113 -55 1 1 32 -7 70 -18 145 -44 269 -43 427 1 22 6 45 12 50
14 156 36 388 174 518 308 88 91 189 250 212 336 0 3 8 30 18 60 27 93 38 244
23 340 -13 80 -63 174 -125 232 -55 53 -132 108 -150 108 -11 0 -36 30 -25 30
157 6 255 13 342 24 23 3 59 8 80 11 31 3 150 27 202 40 57 14 167 48 212 65
55 21 215 98 233 113 6 4 31 22 57 40 197 137 331 360 404 672 18 78 20 89 30
190 14 123 7 372 -13 460 -2 11 -8 46 -14 77 -5 32 -13 68 -18 80 -5 13 -9 28
-10 33 0 6 -8 35 -17 65 -9 30 -17 60 -18 65 -1 6 -4 15 -7 20 -4 6 -12 28
-19 50 -38 123 -198 412 -299 540 -269 344 -622 576 -986 649 -16 4 -41 9 -55
12 -43 10 -271 12 -309 2 -20 -5 -47 -11 -60 -14 -52 -11 -149 -47 -216 -81
-63 -31 -202 -118 -215 -133 -3 -3 -23 -19 -45 -36 -22 -16 -51 -40 -65 -54
-15 -14 -51 -48 -81 -76 -112 -105 -280 -303 -380 -449 -19 -27 -38 -54 -42
-60 -16 -20 -113 -172 -157 -245 -24 -41 -47 -77 -50 -80 -3 -3 -12 -18 -20
-35 -8 -16 -21 -38 -29 -47 -8 -10 -11 -18 -7 -18 4 0 -5 -17 -19 -37 -14 -21
-25 -43 -25 -49 0 -7 -3 -14 -8 -16 -10 -4 -158 -300 -154 -310 1 -4 -2 -8 -6
-8 -4 0 -16 -23 -27 -50 -17 -44 -35 -65 -35 -42 0 19 -111 117 -148 131 -51
20 -58 27 -24 25 15 -1 46 4 69 11 23 7 44 10 47 7 4 -3 6 0 6 6 0 7 9 12 20
12 11 0 20 5 20 10 0 6 7 10 15 10 8 0 15 5 15 10 0 6 5 10 11 10 21 0 88 79
119 139 35 71 48 144 35 206 -3 17 -8 40 -10 53 -18 105 -142 229 -265 263
-25 7 -49 15 -53 19 -6 5 -13 166 -8 190 1 3 3 52 6 110 5 101 21 259 30 290
4 14 12 56 20 105 13 80 102 294 126 303 5 2 9 8 9 13 0 9 37 67 50 79 3 3 17
21 30 40 13 19 27 37 31 40 4 3 22 23 39 45 59 75 205 218 335 330 38 33 76
66 83 73 25 23 47 30 89 27 36 -3 46 1 63 22 29 37 26 87 -6 112 -37 29 -70
26 -106 -9 -23 -24 -29 -36 -24 -55 5 -19 0 -32 -18 -50 -14 -14 -28 -25 -31
-25 -3 0 -13 -8 -23 -17 -11 -10 -50 -45 -88 -78 -114 -99 -270 -259 -358
-366 -78 -95 -206 -318 -206 -361 0 -9 -4 -19 -9 -22 -5 -3 -11 -20 -15 -38
-3 -18 -7 -42 -9 -53 -2 -11 -9 -45 -15 -75 -7 -30 -14 -75 -16 -100 -3 -25
-7 -67 -10 -95 -11 -102 -16 -183 -17 -303 0 -117 -2 -124 -22 -131 -12 -5
-29 -7 -37 -5 -8 1 -17 3 -20 3 -3 1 -6 67 -7 149 -1 130 -9 297 -14 297 -1 0
-3 14 -5 30 -7 72 -23 172 -30 197 -3 9 -6 25 -8 35 -8 38 -27 109 -36 128
-44 101 -76 165 -82 165 -4 0 -8 4 -8 10 0 15 -86 138 -148 210 -67 79 -278
290 -345 345 -26 22 -67 57 -90 78 -23 20 -44 37 -47 37 -3 0 -6 19 -6 42 -2
69 -68 102 -122 60z"/>
</g>
</svg>
