<svg width="358" height="283" viewBox="0 0 358 283" fill="none" xmlns="http://www.w3.org/2000/svg">
<path d="M170.776 137.173C170.776 137.173 178.534 33.4318 224.782 25.6848C273.323 17.5538 323.35 73.0226 313.641 123.651C309.411 145.71 286.522 158.502 262.79 165.894C271.385 167.378 278.375 171.32 281.4 179.332C290.364 203.077 276.442 226.665 254.71 236.639C233.382 246.427 195.92 220.221 195.92 220.221L170.776 137.173Z" fill="#B6EFFF"/>
<path d="M158.45 140.714C158.45 140.714 96.8122 56.9091 53.5043 74.89C8.04925 93.7625 -4.90912 167.326 30.1918 205.082C45.4852 221.532 71.6725 220.224 95.7093 213.893C89.2126 219.713 85.3809 226.764 87.0698 235.159C92.0753 260.041 116.394 272.644 140.106 269.562C163.377 266.538 181.218 224.444 181.218 224.444L158.45 140.714Z" fill="#B6EFFF"/>
<ellipse cx="176.729" cy="183.039" rx="21.3457" ry="61.4119" transform="rotate(-16.0285 176.729 183.039)" fill="#FFC57C"/>
<ellipse cx="155.855" cy="107.287" rx="17.0766" ry="17.1592" transform="rotate(-16.0285 155.855 107.287)" fill="#FFC57C"/>
<path d="M147.731 92.3117C147.731 92.3117 141.763 67.9473 132.498 55.6433C120.407 39.5842 90.3313 27.6415 90.3313 27.6415" stroke="black"/>
<ellipse cx="90.28" cy="27.4622" rx="3.41532" ry="3.61247" transform="rotate(-16.0285 90.28 27.4622)" fill="black"/>
<path d="M152.886 90.8309C152.886 90.8309 145.013 67.0136 146.334 51.6686C148.059 31.6404 167.209 5.55591 167.209 5.55591" stroke="black"/>
<ellipse rx="3.41532" ry="3.61247" transform="matrix(-0.961125 0.276115 0.276115 0.961125 167.158 5.37672)" fill="black"/>
</svg>
