<svg width="214" height="180" viewBox="0 0 214 180" fill="none" xmlns="http://www.w3.org/2000/svg">
<path d="M118.204 88.5291C118.204 88.5291 159.859 48.1608 183.457 62.1667C208.225 76.8669 210.256 118.642 187.27 136.136C177.255 143.758 162.281 140.561 148.914 134.799C152.224 138.621 153.909 142.87 152.318 147.338C147.602 160.581 132.676 165.228 119.257 161.288C106.088 157.421 98.9249 132.531 98.9249 132.531L118.204 88.5291Z" fill="#D5FFA9"/>
<path d="M111.372 85.412C111.372 85.412 114.559 27.4936 88.5143 18.851C61.1783 9.77999 28.2958 35.6263 30.1493 64.4523C30.9568 77.0117 43.1856 86.2264 56.2984 92.5447C51.2424 92.5503 46.9291 94.0623 44.5974 98.1926C37.6869 110.434 43.9593 124.753 55.7305 132.305C67.2829 139.717 90.7758 128.813 90.7758 128.813L111.372 85.412Z" fill="#D5FFA9"/>
<ellipse cx="103.997" cy="109.874" rx="12.5" ry="34" transform="rotate(24.5239 103.997 109.874)" fill="#FFC57C"/>
<ellipse cx="122.508" cy="70.5058" rx="10" ry="9.5" transform="rotate(24.5239 122.508 70.5058)" fill="#FFC57C"/>
<path d="M124.375 61.2342C124.375 61.2342 130.662 48.8498 131.034 40.2663C131.519 29.0632 122.421 12.8742 122.421 12.8742" stroke="black"/>
<circle cx="122.464" cy="12.7802" r="2" transform="rotate(24.5239 122.464 12.7802)" fill="black"/>
<path d="M127.232 62.5375C127.232 62.5375 132.464 49.6715 138.703 43.765C146.846 36.056 165.036 32.3162 165.036 32.3162" stroke="black"/>
<circle r="2" transform="matrix(-0.909788 -0.415073 -0.415073 0.909788 165.079 32.2222)" fill="black"/>
</svg>
