<svg width="314" height="288" viewBox="0 0 314 288" fill="none" xmlns="http://www.w3.org/2000/svg">
<path d="M171.536 140.226C171.536 140.226 241.751 95.1514 271.899 121.827C303.541 149.824 295.542 209.562 258.045 227.664C241.708 235.551 221.09 226.682 203.447 214.646C207.19 221.018 208.495 227.522 205.048 233.387C194.834 250.769 172.238 253.02 154.044 243.549C136.187 234.254 132.426 196.935 132.426 196.935L171.536 140.226Z" fill="#EDCCFC"/>
<path d="M162.563 133.831C162.563 133.831 182.253 52.7497 147.199 32.9586C110.408 12.1862 56.5514 39.2438 51.6788 80.5953C49.5559 98.6122 64.668 115.206 81.803 127.955C74.5584 126.497 67.9845 127.387 63.5656 132.558C50.4691 147.886 55.7154 169.979 70.6062 184.086C85.2202 197.931 121.723 189.307 121.723 189.307L162.563 133.831Z" fill="#EDCCFC"/>
<ellipse cx="145.609" cy="166.327" rx="18.3417" ry="48.7544" transform="rotate(35.4758 145.609 166.327)" fill="#FFC57C"/>
<ellipse cx="182.408" cy="115.955" rx="14.6733" ry="13.6226" transform="rotate(35.4758 182.408 115.955)" fill="#FFC57C"/>
<path d="M187.503 103.369C187.503 103.369 199.745 87.6583 202.519 75.6129C206.139 59.8914 197.334 34.331 197.334 34.331" stroke="black"/>
<ellipse cx="197.42" cy="34.2104" rx="2.93466" ry="2.86791" transform="rotate(35.4758 197.42 34.2104)" fill="black"/>
<path d="M191.256 106.044C191.256 106.044 202.111 89.3445 212.592 82.7913C226.271 74.2382 253.306 74.2191 253.306 74.2191" stroke="black"/>
<ellipse rx="2.93466" ry="2.86791" transform="matrix(-0.814361 -0.580359 -0.580359 0.814361 253.391 74.0983)" fill="black"/>
</svg>
