<svg width="216" height="188" viewBox="0 0 216 188" fill="none" xmlns="http://www.w3.org/2000/svg">
<path d="M103.737 88.7057C103.737 88.7057 96.16 31.1966 121.473 20.6008C148.041 9.47975 182.792 32.7539 183.133 61.6373C183.282 74.2218 171.788 84.3388 159.193 91.6347C164.235 91.2563 168.651 92.4363 171.289 96.3776C179.11 108.059 173.943 122.813 162.779 131.237C151.823 139.505 127.57 130.417 127.57 130.417L103.737 88.7057Z" fill="#FFCDDC"/>
<path d="M97.1609 92.3326C97.1609 92.3326 52.5606 55.2448 30.0947 71.0025C6.51504 87.5415 7.66231 129.35 31.9104 145.047C42.4752 151.887 57.1638 147.562 70.054 140.801C67.0442 144.864 65.6866 149.228 67.6126 153.563C73.3209 166.409 88.5562 169.909 101.637 164.961C114.475 160.105 119.727 134.743 119.727 134.743L97.1609 92.3326Z" fill="#FFCDDC"/>
<ellipse cx="112.404" cy="112.837" rx="12.5" ry="34" transform="rotate(-28.8799 112.404 112.837)" fill="#FFC57C"/>
<ellipse cx="91.8323" cy="74.5056" rx="10" ry="9.5" transform="rotate(-28.8799 91.8323 74.5056)" fill="#FFC57C"/>
<path d="M85.501 67.4794C85.501 67.4794 79.3068 55.0479 72.6369 49.6324C63.9316 42.5641 45.5105 40.2167 45.5105 40.2167" stroke="black"/>
<circle cx="45.4606" cy="40.1262" r="2" transform="rotate(-28.8799 45.4606 40.1262)" fill="black"/>
<path d="M88.2511 65.9627C88.2511 65.9627 81.0408 54.0916 80.0184 45.5611C78.6839 34.4273 86.5255 17.5941 86.5255 17.5941" stroke="black"/>
<circle r="2" transform="matrix(-0.875634 0.482975 0.482975 0.875634 86.4755 17.5035)" fill="black"/>
</svg>
