<svg width="494" height="402" viewBox="0 0 494 402" fill="none" xmlns="http://www.w3.org/2000/svg">
<path d="M70.0731 78.7341V67.0698L98.223 18.9545L95.2598 30.6188L98.223 40.8251L87.852 68.5278L71.5546 113.727L86.3704 104.979L124.891 46.6573L135.262 27.7027L148.597 11.6643L164.894 20.4125L160.449 40.8251L136.744 58.3216L107.112 100.605L111.557 104.979L147.115 74.36L163.412 58.3216L175.265 49.5733L178.228 32.0769L188.599 21.8706H200.452L204.896 23.3286L218.231 21.8706V24.7867L213.786 36.451L206.378 58.3216L187.117 64.1537L172.302 67.0698L114.52 121.017L117.483 123.933L127.854 116.643L148.597 104.979L156.004 91.8565L176.746 83.1082L188.599 94.7726L176.746 116.643L163.412 121.017L147.115 126.849L127.854 134.14L111.557 138.514L107.112 144.346L91.8577 169.133C91.8577 169.133 83.0594 183.996 75.5603 192.461C65.5291 203.784 46.3678 217.248 46.3678 217.248C46.3678 217.248 29.6271 228.682 18.2179 228.912C11.6223 229.045 6.02648 229.62 1.92059 224.538C-2.40074 219.19 1.92059 207.042 1.92059 207.042C1.92059 207.042 10.1614 188.846 16.7363 177.881C26.6162 161.403 36.6622 155.091 46.3678 138.514C59.0807 116.8 70.0731 78.7341 70.0731 78.7341Z" fill="#9ECE6E"/>
<path d="M103.939 52.4893C96.7702 66.7386 83.5037 74.6575 74.308 70.1767C65.1122 65.6958 63.4695 47.1518 70.6388 32.9025C77.8081 18.6532 91.0746 10.7343 100.27 15.2151C109.466 19.696 111.109 38.24 103.939 52.4893Z" fill="#9ECE6E"/>
<ellipse rx="18.49" ry="24.7532" transform="matrix(0.837638 0.546225 -0.558518 0.829493 146.234 30.6324)" fill="#9ECE6E"/>
<path d="M213.236 55.7741C202.321 67.4973 181.274 69.1981 173.709 62.3761C166.143 55.554 168.859 40.52 179.774 28.7968C190.689 17.0735 211.736 15.3727 219.301 22.1948C226.867 29.0168 224.152 44.0508 213.236 55.7741Z" fill="#9ECE6E"/>
<ellipse rx="18.5219" ry="20.8344" transform="matrix(0.898956 0.438039 -0.449452 0.893305 169.604 99.6267)" fill="#9ECE6E"/>
<path d="M316.443 183.056L323.469 173.745L374.92 152.292L365.529 159.818L361.747 169.75L336.783 185.617L296.549 211.882L313.645 213.822L379.523 190.468L399.218 181.584L419.523 176.813L427.263 193.612L411.42 207.23L381.959 206.918L332.838 222.824L333.751 228.993L380.578 225.968L403.247 222.981L417.978 223.137L430.882 210.955L445.308 209.054L454.769 216.193L457.439 220.034L468.961 226.901L467.205 229.229L456.631 235.863L437.545 248.86L418.657 241.915L405.074 235.319L326.456 243.58L327.065 247.693L339.735 248.12L363.318 251.302L377.135 245.289L398.962 250.799L401.398 267.249L378.764 277.568L365.485 273.029L348.963 267.868L329.197 262.087L313.553 255.762L306.492 257.741L279.385 268.339C279.385 268.339 263.409 274.905 252.324 277.145C237.497 280.142 214.092 279.348 214.092 279.348C214.092 279.348 193.842 278.393 184.595 271.704C179.25 267.838 174.437 264.926 174.221 258.397C173.992 251.525 184.759 244.43 184.759 244.43C184.759 244.43 202.296 234.869 214.15 230.076C231.961 222.873 243.782 223.885 261.514 216.498C284.741 206.822 316.443 183.056 316.443 183.056Z" fill="#9ECE6E"/>
<path d="M359.285 182.504C344.98 189.561 329.62 187.891 324.978 178.776C320.337 169.66 330.195 153.868 344.5 146.811C358.806 139.755 374.165 141.424 378.807 150.54C383.449 159.655 373.591 175.448 359.285 182.504Z" fill="#9ECE6E"/>
<ellipse rx="18.49" ry="24.7532" transform="matrix(0.339655 0.94055 -0.945456 0.32575 406.212 190.531)" fill="#9ECE6E"/>
<path d="M444.554 250.957C428.78 253.741 410.955 242.422 409.025 232.419C407.094 222.417 418.317 212.051 434.091 209.267C449.866 206.483 467.691 217.802 469.621 227.805C471.551 237.808 460.328 248.173 444.554 250.957Z" fill="#9ECE6E"/>
<ellipse rx="18.5219" ry="20.8344" transform="matrix(0.453765 0.891122 -0.896828 0.44238 383.311 259.682)" fill="#9ECE6E"/>
<path d="M316.443 183.056L323.469 173.745L374.92 152.292L365.529 159.818L361.747 169.75L336.783 185.617L296.549 211.882L313.645 213.822L379.523 190.468L399.218 181.584L419.523 176.813L427.263 193.612L411.42 207.23L381.959 206.918L332.838 222.824L333.751 228.993L380.578 225.968L403.247 222.981L417.978 223.137L430.882 210.955L445.308 209.054L454.769 216.193L457.439 220.034L468.961 226.901L467.205 229.229L456.631 235.863L437.545 248.86L418.657 241.915L405.074 235.319L326.456 243.58L327.065 247.693L339.735 248.12L363.318 251.302L377.135 245.289L398.962 250.799L401.398 267.249L378.764 277.568L365.485 273.029L348.963 267.868L329.197 262.087L313.553 255.762L306.492 257.741L279.385 268.339C279.385 268.339 263.409 274.905 252.324 277.145C237.497 280.142 214.092 279.348 214.092 279.348C214.092 279.348 193.842 278.393 184.595 271.704C179.25 267.838 174.437 264.926 174.221 258.397C173.992 251.525 184.759 244.43 184.759 244.43C184.759 244.43 202.296 234.869 214.15 230.076C231.961 222.873 243.782 223.885 261.514 216.498C284.741 206.822 316.443 183.056 316.443 183.056Z" fill="#9ECE6E"/>
<path d="M359.285 182.504C344.98 189.561 329.62 187.891 324.978 178.776C320.337 169.66 330.195 153.868 344.5 146.811C358.806 139.755 374.165 141.424 378.807 150.54C383.449 159.655 373.591 175.448 359.285 182.504Z" fill="#9ECE6E"/>
<ellipse rx="18.49" ry="24.7532" transform="matrix(0.339655 0.94055 -0.945456 0.32575 406.212 190.531)" fill="#9ECE6E"/>
<path d="M444.554 250.957C428.78 253.741 410.955 242.422 409.025 232.419C407.094 222.417 418.317 212.051 434.091 209.267C449.866 206.483 467.691 217.802 469.621 227.805C471.551 237.808 460.328 248.173 444.554 250.957Z" fill="#9ECE6E"/>
<ellipse rx="18.5219" ry="20.8344" transform="matrix(0.453765 0.891122 -0.896828 0.44238 383.311 259.682)" fill="#9ECE6E"/>
</svg>
