<svg width="456" height="532" viewBox="0 0 456 532" fill="none" xmlns="http://www.w3.org/2000/svg">
<path d="M268.271 267.884L279.438 264.513L333.635 277.558L321.612 278.092L312.698 283.878L283.18 281.955L235.2 279.415L247.856 291.07L314.821 311.094L335.964 315.545L355.171 323.676L351.506 341.806L330.68 343.449L307.079 325.812L258.037 309.663L255.134 315.182L294.722 340.375L314.786 351.342L326.586 360.161L344.192 357.942L356.96 364.921L360.385 376.268L360.274 380.944L365.523 393.288L362.731 394.131L350.28 393.247L327.202 392.475L316.053 375.721L308.98 362.381L240.636 322.654L238.701 326.333L248.677 334.155L265.838 350.642L280.541 353.941L294.91 371.27L287.169 385.988L262.806 380.961L254.765 369.46L244.472 355.543L231.927 339.211L223.03 324.873L216.162 322.303L188.025 314.862C188.025 314.862 171.253 310.735 160.982 306.002C147.243 299.671 128.817 285.218 128.817 285.218C128.817 285.218 113.033 272.495 109.516 261.639C107.482 255.364 105.315 250.172 108.994 244.773C112.865 239.091 125.744 239.717 125.744 239.717C125.744 239.717 145.544 242.348 157.942 245.474C176.571 250.171 185.517 257.964 204.192 262.465C228.653 268.361 268.271 267.884 268.271 267.884Z" fill="#9ECE6E"/>
<path d="M303.183 292.721C287.47 289.976 276.055 279.564 277.688 269.465C279.32 259.367 296.598 252.436 312.311 255.181C328.024 257.927 339.439 268.339 337.807 278.437C336.175 288.536 318.896 295.467 303.183 292.721Z" fill="#9ECE6E"/>
<ellipse rx="18.49" ry="24.7532" transform="matrix(-0.280863 0.959748 -0.955502 -0.294984 336.33 326.895)" fill="#9ECE6E"/>
<path d="M331.623 398.304C317.246 391.243 309.535 371.585 313.88 362.371C318.225 353.157 333.402 351.412 347.779 358.474C362.157 365.536 369.867 385.193 365.522 394.407C361.178 403.621 346 405.366 331.623 398.304Z" fill="#9ECE6E"/>
<ellipse rx="18.5219" ry="20.8344" transform="matrix(-0.159573 0.987186 -0.985074 -0.172131 277.032 369.206)" fill="#9ECE6E"/>
<path d="M164.661 73.5729L175.737 69.9146L230.254 81.5534L218.248 82.3981L209.486 88.4128L179.929 87.2537L131.899 85.9548L144.852 97.2792L212.313 115.565L233.564 119.468L252.975 127.099L249.779 145.318L229.003 147.499L204.954 130.478L155.511 115.603L152.752 121.195L192.978 145.356L213.319 155.8L225.343 164.311L242.886 161.637L255.83 168.284L259.547 179.539L259.557 184.216L265.123 196.42L262.354 197.335L249.885 196.773L226.794 196.598L215.215 180.139L207.8 166.985L138.452 129.039L136.612 132.767L146.787 140.329L164.369 156.366L179.152 159.284L193.965 176.236L186.606 191.149L162.122 186.754L153.786 175.464L143.137 161.818L130.174 145.816L120.909 131.713L113.977 129.322L85.6566 122.611C85.6566 122.611 68.7835 118.918 58.3936 114.452C44.4955 108.479 25.7018 94.5067 25.7018 94.5067C25.7018 94.5067 9.59403 82.1968 5.79718 71.4355C3.60225 65.2144 1.30186 60.081 4.83917 54.5886C8.56206 48.8079 21.4528 49.101 21.4528 49.101C21.4528 49.101 41.3147 51.2194 53.789 54.0234C72.5337 58.2368 81.6783 65.7961 100.463 69.8128C125.069 75.074 164.661 73.5729 164.661 73.5729Z" fill="#9ECE6E"/>
<path d="M200.204 97.4992C184.425 95.1608 172.745 85.0473 174.115 74.9102C175.486 64.7731 192.579 57.3972 208.358 59.7357C224.137 62.0741 235.817 72.1876 234.447 82.3247C233.076 92.4618 215.983 99.8377 200.204 97.4992Z" fill="#9ECE6E"/>
<ellipse rx="18.49" ry="24.7532" transform="matrix(-0.255951 0.96669 -0.96281 -0.270178 234.223 130.805)" fill="#9ECE6E"/>
<path d="M231.364 202.311C216.809 195.624 208.593 176.173 212.698 166.849C216.803 157.526 231.93 155.389 246.485 162.076C261.04 168.764 269.256 188.215 265.151 197.539C261.046 206.862 245.919 208.999 231.364 202.311Z" fill="#9ECE6E"/>
<ellipse rx="18.5219" ry="20.8344" transform="matrix(-0.133992 0.990982 -0.989196 -0.146601 176.039 174.634)" fill="#9ECE6E"/>
</svg>
