<svg width="344" height="460" viewBox="0 0 344 460" fill="none" xmlns="http://www.w3.org/2000/svg">
<path d="M78.4321 82.5589L79.0896 70.9132L109.907 24.4612L106.291 35.9399L108.674 46.297L96.7581 73.3711L77.9388 117.58L93.2241 109.681L134.971 53.6232L146.394 35.2834L160.611 20.0221L176.39 29.6751L170.801 49.8047L146.148 65.9371L114.18 106.483L118.371 111.1L155.598 82.5346L172.774 67.4404L185.101 59.3742L189.045 42.0725L199.975 32.4671L211.809 33.1352L216.164 34.8415L229.559 34.1374L229.395 37.0489L224.3 48.4441L215.671 69.8623L196.112 74.5995L181.156 76.6758L120.425 127.28L123.219 130.359L133.985 123.665L155.351 113.188L163.487 100.504L184.689 92.9393L195.866 105.253L182.799 126.421L169.239 130.036L152.639 134.941L132.998 141.133L116.481 144.582L111.714 150.154L95.0864 174.042C95.0864 174.042 85.4643 188.386 77.4999 196.414C66.8463 207.154 46.9566 219.516 46.9566 219.516C46.9566 219.516 29.598 229.989 18.1939 229.575C11.6014 229.336 5.98201 229.594 2.16909 224.289C-1.8439 218.706 3.15536 206.821 3.15536 206.821C3.15536 206.821 12.4088 189.119 19.5913 178.541C30.3844 162.647 40.7702 156.911 51.3948 140.907C65.3115 119.945 78.4321 82.5589 78.4321 82.5589Z" fill="#9ECE6E"/>
<path d="M113.724 58.2648C105.763 72.0874 92.0711 79.2458 83.1426 74.2538C74.2141 69.2617 73.6193 50.6545 81.5804 36.832C89.5416 23.0094 103.233 15.851 112.162 20.8431C121.09 25.8351 121.685 44.4423 113.724 58.2648Z" fill="#9ECE6E"/>
<ellipse rx="18.49" ry="24.7532" transform="matrix(0.805516 0.592575 -0.604388 0.79669 157.183 38.8268)" fill="#9ECE6E"/>
<path d="M222.662 67.7055C211.103 78.7948 189.994 79.3065 182.825 72.0688C175.656 64.8311 179.215 49.9741 190.774 38.8848C202.332 27.7954 223.441 27.2838 230.61 34.5214C237.779 41.7591 234.221 56.6161 222.662 67.7055Z" fill="#9ECE6E"/>
<ellipse rx="18.5219" ry="20.8344" transform="matrix(0.872834 0.488017 -0.499092 0.866549 176.627 109.029)" fill="#9ECE6E"/>
<path d="M162.794 257.03L167.407 246.317L212.293 213.259L204.958 222.8L203.642 233.346L183.16 254.688L150.314 289.755L167.381 287.58L225.829 249.251L242.851 235.944L261.442 226.488L272.95 240.969L260.794 257.959L232.101 264.652L188.162 291.767L190.514 297.542L235.283 283.485L256.595 275.2L270.941 271.854L280.583 256.956L294.145 251.684L305.032 256.372L308.537 259.469L321.361 263.404L320.207 266.083L311.511 275.038L296.057 292.195L276.06 289.933L261.299 286.751L186.892 313.445L188.46 317.295L200.869 314.702L224.533 312.193L236.527 303.071L259.038 303.24L265.31 318.641L245.774 334.04L231.797 332.783L214.522 331.694L193.949 330.771L177.25 328.343L170.861 331.941L147.046 348.673C147.046 348.673 133.087 358.844 122.851 363.653C109.159 370.085 86.235 374.872 86.235 374.872C86.235 374.872 66.3368 378.752 55.767 374.451C49.6567 371.964 44.29 370.278 42.5288 363.987C40.6752 357.366 49.4492 347.917 49.4492 347.917C49.4492 347.917 64.2148 334.465 74.5908 326.995C90.1823 315.769 101.906 313.945 117.377 302.558C137.641 287.644 162.794 257.03 162.794 257.03Z" fill="#9ECE6E"/>
<path d="M204.279 246.32C192.058 256.572 176.741 258.598 170.068 250.845C163.394 243.092 169.22 225.411 181.441 215.159C193.662 204.908 208.979 202.882 215.652 210.634C222.326 218.387 216.5 236.069 204.279 246.32Z" fill="#9ECE6E"/>
<ellipse rx="18.49" ry="24.7532" transform="matrix(0.553281 0.832995 -0.841062 0.540938 251.769 242.974)" fill="#9ECE6E"/>
<path d="M303.364 292.568C288.702 299.017 268.699 292.255 264.448 282.997C260.198 273.739 268.638 261.005 283.3 254.555C297.963 248.105 317.966 254.867 322.216 264.125C326.466 273.384 318.026 286.118 303.364 292.568Z" fill="#9ECE6E"/>
<ellipse rx="18.5219" ry="20.8344" transform="matrix(0.65239 0.757884 -0.76613 0.642685 245.944 315.586)" fill="#9ECE6E"/>
</svg>
