<svg width="344" height="293" viewBox="0 0 344 293" fill="none" xmlns="http://www.w3.org/2000/svg">
<path d="M169.185 137.8C169.185 137.8 156.784 47.6644 198.216 31.0574C241.702 13.627 298.581 50.1052 299.139 95.3748C299.383 115.099 280.57 130.955 259.955 142.39C268.207 141.797 275.435 143.647 279.754 149.824C292.554 168.132 284.097 191.256 265.825 204.46C247.892 217.418 208.195 203.175 208.195 203.175L169.185 137.8Z" fill="#FFCDDC"/>
<path d="M158.423 143.484C158.423 143.484 85.4221 85.3556 48.6506 110.053C10.0561 135.975 11.9339 201.503 51.6224 226.105C68.9147 236.825 92.9565 230.047 114.055 219.45C109.128 225.818 106.906 232.658 110.059 239.452C119.402 259.586 144.339 265.072 165.749 257.317C186.762 249.706 195.358 209.955 195.358 209.955L158.423 143.484Z" fill="#FFCDDC"/>
<ellipse rx="20.2605" ry="53.849" transform="matrix(0.884242 -0.467029 0.499129 0.866527 183.372 175.622)" fill="#FFC57C"/>
<ellipse rx="16.2084" ry="15.0461" transform="matrix(0.884242 -0.467029 0.499129 0.866527 149.701 115.544)" fill="#FFC57C"/>
<path d="M139.338 104.531C139.338 104.531 129.2 85.0472 118.283 76.5593C104.034 65.481 73.8828 61.8018 73.8828 61.8018" stroke="black"/>
<ellipse rx="3.24167" ry="3.16759" transform="matrix(0.884242 -0.467029 0.499129 0.866527 73.8012 61.66)" fill="black"/>
<path d="M143.839 102.154C143.839 102.154 132.037 83.5482 130.364 70.1781C128.18 52.7278 141.015 26.3447 141.015 26.3447" stroke="black"/>
<ellipse rx="3.24167" ry="3.16759" transform="matrix(-0.884242 0.467029 0.499129 0.866527 140.933 26.2029)" fill="black"/>
</svg>
