<svg width="478" height="882" viewBox="0 0 478 882" fill="none" xmlns="http://www.w3.org/2000/svg">
<rect x="406.133" y="45" width="16" height="347" rx="8" transform="rotate(33.2255 406.133 45)" fill="#8BDE73"/>
<path d="M239.5 489L334.33 318.75H144.67L239.5 489Z" fill="#E7C755"/>
<path d="M34.5889 123.75L239 485.948L443.411 123.75H34.5889Z" stroke="black" stroke-width="3"/>
<line x1="238.5" y1="865.021" x2="238.5" y2="484" stroke="black" stroke-width="3"/>
<path d="M327.577 872.52C327.943 872.709 328.189 872.872 328.345 873C328.189 873.128 327.943 873.291 327.577 873.48C326.592 873.987 325.044 874.519 322.919 875.048C318.693 876.099 312.513 877.06 304.801 877.872C289.395 879.494 268.075 880.5 244.5 880.5C220.925 880.5 199.605 879.494 184.199 877.872C176.487 877.06 170.307 876.099 166.081 875.048C163.956 874.519 162.408 873.987 161.423 873.48C161.057 873.291 160.811 873.128 160.655 873C160.811 872.872 161.057 872.709 161.423 872.52C162.408 872.013 163.956 871.481 166.081 870.952C170.307 869.901 176.487 868.94 184.199 868.128C199.605 866.506 220.925 865.5 244.5 865.5C268.075 865.5 289.395 866.506 304.801 868.128C312.513 868.94 318.693 869.901 322.919 870.952C325.044 871.481 326.592 872.013 327.577 872.52ZM160.458 872.805C160.458 872.805 160.459 872.805 160.46 872.807C160.459 872.805 160.458 872.805 160.458 872.805ZM160.458 873.195C160.458 873.195 160.459 873.195 160.46 873.193C160.459 873.195 160.458 873.195 160.458 873.195Z" stroke="black" stroke-width="3"/>
</svg>
