<svg width="163" height="64" viewBox="0 0 163 64" fill="none" xmlns="http://www.w3.org/2000/svg">
<path d="M38 27L27.5 32L21.5 50.5" stroke="black"/>
<path d="M42.4999 17.0001C47.5903 23.5824 50.364 29.1055 47.5425 31.2875C44.7211 33.4694 39.5904 30.0823 34.5 23.5C29.4096 16.9177 26.2872 9.63273 29.1086 7.45079C31.9301 5.26885 37.4096 10.4177 42.4999 17.0001Z" fill="black"/>
<circle cx="42" cy="28.5" r="3" fill="white"/>
<circle cx="42" cy="28.5" r="1" fill="black"/>
<path d="M31.5 15.5L16 11.5L5 23.5" stroke="black"/>
<path d="M36 11.5L45.5 1L55 8.5" stroke="black"/>
<path d="M45.5 23.5L54 16.5L70 21.5" stroke="black"/>
<path d="M17.7217 49.5C17.7217 49.5 18.8864 51.881 20.2861 52.5842C21.8358 53.3627 24.727 52.6135 24.727 52.6135" stroke="black"/>
<path d="M54 12.1459C54 12.1459 56.6282 11.8017 57.7412 10.6996C58.9735 9.47918 59.1859 6.50003 59.1859 6.50003" stroke="black"/>
<path d="M71 25.3842C71 25.3842 73.4228 24.3092 74.1778 22.9368C75.0136 21.4171 74.3729 18.5 74.3729 18.5" stroke="black"/>
<path d="M1.21344 21.5C1.21344 21.5 1.5381 24.1306 2.63202 25.2518C3.84323 26.4931 6.82073 26.7276 6.82073 26.7276" stroke="black"/>
<circle cx="47" cy="25.5" r="3" fill="white"/>
<circle cx="47" cy="25.5" r="1" fill="black"/>
<path d="M124.971 36L135.471 41L141.471 59.5" stroke="black"/>
<path d="M120.471 26.0001C115.381 32.5824 112.607 38.1055 115.428 40.2875C118.25 42.4694 123.381 39.0823 128.471 32.5C133.561 25.9177 136.684 18.6327 133.862 16.4508C131.041 14.2688 125.561 19.4177 120.471 26.0001Z" fill="black"/>
<circle r="3" transform="matrix(-1 0 0 1 120.971 37.5)" fill="white"/>
<circle r="1" transform="matrix(-1 0 0 1 120.971 37.5)" fill="black"/>
<path d="M131.471 24.5L146.971 20.5L157.971 32.5" stroke="black"/>
<path d="M126.971 20.5L117.471 10L107.971 17.5" stroke="black"/>
<path d="M117.471 32.5L108.971 25.5L92.9709 30.5" stroke="black"/>
<path d="M145.249 58.5C145.249 58.5 144.085 60.881 142.685 61.5842C141.135 62.3627 138.244 61.6135 138.244 61.6135" stroke="black"/>
<path d="M108.971 21.1459C108.971 21.1459 106.343 20.8017 105.23 19.6996C103.997 18.4792 103.785 15.5 103.785 15.5" stroke="black"/>
<path d="M91.9709 34.3842C91.9709 34.3842 89.5481 33.3092 88.7931 31.9368C87.9573 30.4171 88.598 27.5 88.598 27.5" stroke="black"/>
<path d="M161.757 30.5C161.757 30.5 161.433 33.1306 160.339 34.2518C159.128 35.4931 156.15 35.7276 156.15 35.7276" stroke="black"/>
<circle r="3" transform="matrix(-1 0 0 1 115.971 34.5)" fill="white"/>
<circle r="1" transform="matrix(-1 0 0 1 115.971 34.5)" fill="black"/>
</svg>
