<?xml version="1.0" encoding="utf-8"?>
<!-- Generator: Adobe Illustrator 23.1.1, SVG Export Plug-In . SVG Version: 6.00 Build 0)  -->
<svg version="1.1" id="Слой_1" xmlns="http://www.w3.org/2000/svg" xmlns:xlink="http://www.w3.org/1999/xlink" x="0px" y="0px"
	 viewBox="0 0 904 532" style="enable-background:new 0 0 904 532;" xml:space="preserve">
<style type="text/css">
	.st0{fill:#8BDE73;}
	.st1{fill:#4D300B;}
	.st2{fill:#B7EE9D;}
</style>
<path class="st0" d="M529.5,246.5l17.5,1.7l-47.6,230c0,0.2-8.4,56.6-8.6,56.6l-28.6-2.8l66.9-285.2
	C529.1,246.6,529.3,246.4,529.5,246.5z"/>
<path class="st0" d="M128.1,344.8l17.2-6.6l80.3,202.3c0.1,0.2,0,0.4-0.2,0.5l-17.2,6.6l-80.3-202.3
	C127.8,345.1,127.9,344.9,128.1,344.8z"/>
<path class="st1" d="M85.6,250.8l26.8-10.8c5.1-2.1,10.9,0.4,12.8,5.6l56,147.8c2,5.2-0.6,11-5.7,13.1l-26.8,10.8
	c-5.1,2.1-10.9-0.4-12.8-5.6l-56-147.8C77.9,258.7,80.5,252.8,85.6,250.8z"/>
<path class="st2" d="M209.7,385.6c12.2-31.8,33.6-73.7,33.6-73.7s8.3,57-8.6,88.5C221,425.8,198,485,198,485
	S200.9,408.5,209.7,385.6z"/>
<path class="st2" d="M68.6,401.6c-28.9-26.9-65.1-67.8-65.1-67.8s63.2,16.7,90,48.4c21.6,25.5,75.3,75.9,75.3,75.9
	S89.3,420.9,68.6,401.6z"/>
<path class="st2" d="M368.5,289c26-38.5,67-87.5,67-87.5s-8.6,80-40.5,116.5c-25.7,29.4-74.5,101-74.5,101S349.8,316.7,368.5,289z"
	/>
<path class="st2" d="M194,249.2C167.5,211,136.7,155,136.7,155s71.4,37.1,93.9,80c18.1,34.6,67.1,106.1,67.1,106.1
	S213,276.7,194,249.2z"/>
<path class="st0" d="M762.9,318.9L762.9,318.9c3,1.4,4.7,6,3.7,10.3L714.6,553c-1,4.3-11.9-0.7-10.9-5l51.9-223.8
	C756.6,319.9,759.8,317.6,762.9,318.9z"/>
<path class="st1" d="M790.9,231.9l22.8,7.2c5.3,1.7,8.1,7.3,6.4,12.5l-42.5,128.1c-1.7,5.2-7.4,8.1-12.7,6.5l-22.8-7.2
	c-5.3-1.7-8.1-7.3-6.4-12.5l42.5-128.1C780,233.1,785.7,230.2,790.9,231.9z"/>
<path class="st2" d="M795.1,402.1c29-19,71.1-40.8,71.1-40.8s-30.7,52.9-63,68.7C777.3,442.8,723,478,723,478
	S774.2,415.8,795.1,402.1z"/>
<path class="st2" d="M693.9,323c-5.2-34.3-7.7-82.1-7.7-82.1s34.9,46.8,36,83.1c0.9,29.3,10.4,93.3,10.4,93.3S697.7,347.6,693.9,323
	z"/>
<path class="st1" d="M555,56.5l40.6,8.2c5.4,1.1,8.9,6.4,7.8,11.8l-36.7,180.3c-1.1,5.4-6.4,8.9-11.8,7.8l-40.6-8.2
	c-5.4-1.1-8.9-6.4-7.8-11.8l36.7-180.3C544.3,58.9,549.6,55.4,555,56.5z"/>
<path class="st2" d="M595.5,281.1c36.6-28.7,90.7-62.7,90.7-62.7s-32.8,73.5-74.4,98.4C578.3,336.9,509.8,390,509.8,390
	S569.2,301.7,595.5,281.1z"/>
<path class="st2" d="M441.6,189.5C428.2,145,416.1,82.3,416.1,82.3s56.6,57.2,64.7,105c6.5,38.5,31.2,121.6,31.2,121.6
	S451.3,221.5,441.6,189.5z"/>
<path class="st0" d="M295.2,282.7l20.4-2.6l14.5,264.3c0,0.3-0.2,0.5-0.4,0.5l-20.4,2.6l-14.5-264.3
	C294.8,282.9,295,282.7,295.2,282.7z"/>
<path class="st1" d="M260.9,87.7l41.1-4.6c5.5-0.6,10.4,3.3,11.1,8.8l20.6,182.9c0.6,5.5-3.3,10.4-8.8,11.1l-41.1,4.6
	c-5.5,0.6-10.4-3.3-11.1-8.8L252.1,98.8C251.5,93.3,255.4,88.4,260.9,87.7z"/>
</svg>
